# xmcd CD database file
#
# Track frame offsets:
#	150
#	16165
#	30788
#	50223
#	66715
#	80465
#	97208
#	114215
#	132988
#	147695
#	164670
#	181175
#	197090
#	216405
#	233945
#	254425
#	277393
#
# Disc length: 3872 seconds
#
# Revision: 0
# Processed by: cddbd v1.4PL0 Copyright (c) Steve Scherf et al.
# Submitted via: CDex 1.50Beta7
#
DISCID=0d0f1e11
DTITLE=Fernando and Juan Carlos - De una vez
DYEAR=1900
DGENRE=Blues
TTITLE0=Cristina
TTITLE1=Aún paso por tu casa
TTITLE2=Tan solo una vez
TTITLE3=Oh, no no (no te quiero olvidar)
TTITLE4=Dejen al héroe
TTITLE5=Ya no me río (de la soledad)
TTITLE6=Será
TTITLE7=No es fácil para mí
TTITLE8=Rasga el cielo
TTITLE9=Si me olvidaras
TTITLE10=Infinitamente cerca
TTITLE11=En tu amor
TTITLE12=Una y otra vez
TTITLE13=Para bien o para mal
TTITLE14=Los dioses de sal
TTITLE15=Como abriendo el Sol
TTITLE16=Jugando estoy
EXTD=
EXTT0=
EXTT1=
EXTT2=
EXTT3=
EXTT4=
EXTT5=
EXTT6=
EXTT7=
EXTT8=
EXTT9=
EXTT10=
EXTT11=
EXTT12=
EXTT13=
EXTT14=
EXTT15=
EXTT16=
PLAYORDER=
